<?xml version="1.0" standalone="no"?>
<!DOCTYPE svg PUBLIC "-//W3C//DTD SVG 20010904//EN"
 "http://www.w3.org/TR/2001/REC-SVG-20010904/DTD/svg10.dtd">
<svg version="1.0" xmlns="http://www.w3.org/2000/svg"
 width="870.000000pt" height="870.000000pt" viewBox="0 0 870.000000 870.000000"
 preserveAspectRatio="xMidYMid meet">
<metadata>
Created by potrace 1.14, written by Peter Selinger 2001-2017
</metadata>
<g transform="translate(0.000000,870.000000) scale(0.100000,-0.100000)"
fill="#000000" stroke="none">
<path d="M1 8392 c2 -303 14 -470 34 -461 6 2 11 18 13 34 1 17 4 41 6 55 2
14 5 31 5 38 2 29 21 9 21 -23 0 -19 5 -35 11 -35 6 0 9 -14 7 -32 -6 -58 19
-42 27 17 6 52 9 56 28 52 12 -3 38 0 58 7 34 12 38 11 59 -11 20 -20 21 -26
9 -34 -8 -5 -17 -9 -21 -9 -11 0 -10 -14 2 -46 l11 -27 27 33 c24 28 33 32 65
28 26 -3 37 0 37 9 0 7 -7 13 -15 13 -8 0 -15 3 -15 6 0 13 36 33 59 34 19 0
21 -3 11 -15 -15 -18 -5 -35 21 -35 13 0 18 -4 13 -12 -4 -6 3 -4 17 5 13 9
34 17 46 17 14 0 23 6 23 15 0 8 2 15 5 15 12 0 70 -33 77 -43 3 -6 21 16 39
48 l33 58 17 -41 c10 -23 23 -42 29 -42 7 0 19 18 27 39 11 27 20 38 30 34 8
-3 12 -11 9 -19 -15 -39 71 -36 89 4 5 12 18 25 28 28 10 3 25 14 35 24 21 22
62 36 62 20 0 -7 11 -5 30 5 40 21 50 19 50 -8 0 -19 9 -28 41 -40 35 -14 40
-19 34 -39 -4 -15 -3 -19 3 -10 5 7 30 14 56 15 25 1 41 4 36 5 -6 2 -10 9
-10 16 0 7 -10 18 -22 24 -21 10 -19 11 17 11 22 1 51 -6 63 -15 23 -16 30
-44 11 -44 -5 0 -7 -4 -4 -10 3 -5 15 -10 26 -10 14 0 19 -7 19 -30 0 -23 4
-30 20 -30 22 0 27 28 10 61 -10 17 -7 19 20 19 17 0 38 -7 46 -15 10 -9 34
-15 65 -15 31 0 49 -4 49 -12 0 -6 11 -1 25 12 17 16 21 26 14 31 -8 5 -8 8 1
14 6 4 19 0 29 -9 11 -10 33 -15 57 -15 26 1 31 3 15 6 -23 5 -23 6 19 44 23
21 45 39 49 39 3 0 12 -10 20 -22 l14 -22 17 22 c19 22 50 30 50 12 0 -14 83
-13 97 1 9 9 9 16 0 29 -8 14 -8 22 2 34 21 25 31 19 31 -18 0 -22 9 -45 24
-62 l23 -28 12 23 c7 12 10 25 7 28 -3 4 -1 12 5 19 8 10 16 11 30 3 13 -7 19
-6 19 1 0 6 5 8 11 5 6 -4 8 -13 5 -20 -8 -23 21 -37 86 -40 35 -2 80 -7 101
-13 30 -8 37 -7 37 4 0 8 9 14 20 14 11 0 23 7 26 15 4 8 12 15 20 15 8 0 14
9 14 20 0 17 7 20 40 20 34 0 40 -3 40 -21 0 -19 2 -18 23 6 21 25 23 26 56
12 40 -17 76 -6 84 24 5 20 55 27 73 10 5 -5 26 -14 47 -19 34 -9 38 -9 33 5
-8 21 24 45 42 31 7 -6 10 -19 7 -29 -3 -9 -1 -20 5 -24 6 -4 10 4 10 18 0 27
16 37 61 37 22 0 40 10 63 35 32 34 56 45 56 26 0 -5 20 -11 45 -13 31 -2 45
1 45 9 0 7 8 13 18 13 13 0 18 8 17 28 0 17 5 27 15 27 10 0 14 -9 13 -27 -1
-18 3 -29 13 -29 8 -1 20 -2 26 -3 7 -1 13 9 13 21 0 34 20 22 20 -12 1 -46
10 -55 43 -43 23 9 42 6 102 -16 40 -14 81 -26 91 -26 9 0 19 -5 21 -11 2 -7
19 -7 53 -1 l50 10 -46 1 c-50 1 -70 21 -47 48 15 19 55 9 89 -23 30 -28 33
-29 54 -8 9 9 19 14 22 10 4 -3 1 -12 -5 -18 -22 -22 -13 -29 31 -26 l42 3 -3
45 c-1 30 1 40 7 31 14 -21 41 -5 47 29 6 26 24 43 24 22 0 -5 12 -15 27 -23
32 -17 83 -67 83 -83 0 -6 5 -3 11 7 5 9 17 17 26 17 12 0 14 7 9 30 -3 18 -2
29 3 25 5 -3 11 5 13 17 4 31 42 31 46 1 2 -13 8 -23 13 -23 5 0 9 -8 9 -19 0
-15 10 -19 52 -23 32 -4 64 0 85 8 43 18 78 18 97 -2 9 -8 16 -11 16 -5 0 6 7
11 15 11 9 0 15 -9 15 -21 0 -11 7 -27 15 -35 13 -13 17 -13 29 -1 8 7 12 24
9 39 -5 28 14 48 23 25 4 -12 23 -14 94 -11 l88 4 7 -27 c4 -16 10 -22 12 -15
6 14 83 17 83 2 0 -15 19 -12 36 5 22 22 70 19 94 -7 l20 -22 27 20 c37 27 61
35 65 22 2 -6 20 -2 46 11 46 23 111 28 130 9 10 -10 17 -10 33 0 26 17 37 7
21 -18 -19 -31 -15 -50 11 -50 14 0 28 11 39 30 10 18 25 29 35 28 42 -3 61 3
66 22 4 17 14 20 69 20 64 0 64 0 81 -35 18 -37 37 -44 57 -20 19 22 87 20 99
-4 17 -31 40 -34 51 -6 5 14 13 25 17 25 18 0 79 -26 86 -37 16 -26 68 -45
106 -38 28 5 41 2 51 -9 7 -9 18 -16 24 -16 19 0 68 -48 57 -55 -19 -11 -12
-25 14 -25 21 0 25 5 25 30 0 21 5 30 17 30 14 0 15 2 1 18 -19 22 -31 79 -17
87 5 4 27 -11 48 -32 31 -30 42 -36 55 -28 11 7 22 6 36 -3 16 -10 20 -10 20
1 0 7 -5 18 -12 25 -9 9 -9 12 0 12 7 0 12 -5 12 -11 0 -6 6 -9 12 -6 7 2 13
9 13 15 0 24 18 25 35 2 22 -29 26 -56 8 -63 -10 -4 -9 -8 2 -16 24 -17 36 4
23 40 -10 25 -9 34 2 45 17 17 25 17 47 0 15 -11 15 -17 3 -52 -9 -25 -10 -43
-4 -51 7 -8 4 -15 -8 -22 -16 -9 -16 -10 5 -11 12 0 22 4 22 8 0 5 18 14 40
21 43 13 53 36 20 46 -24 8 -26 21 -4 29 22 9 24 8 24 -11 0 -17 40 -43 67
-43 20 0 15 17 -7 23 -27 7 -26 42 2 61 15 11 25 12 34 5 7 -6 28 -9 46 -7 29
3 35 -1 48 -29 8 -18 21 -33 28 -33 7 0 20 -7 28 -15 9 -8 21 -15 27 -15 8 0
7 3 -2 9 -17 11 -6 30 25 41 13 5 24 16 24 25 0 26 14 17 38 -25 24 -42 52
-55 102 -48 25 4 29 2 25 -13 -4 -11 1 -21 12 -27 25 -13 43 -4 43 22 0 18 6
23 30 23 35 0 48 9 33 24 -8 8 -17 8 -31 0 -26 -14 -92 -14 -92 -1 0 6 -19 11
-42 12 -40 1 -41 1 -8 5 43 5 90 22 90 34 0 16 37 9 55 -11 12 -13 25 -17 44
-14 50 10 110 -32 69 -50 -9 -3 -7 -10 8 -24 12 -10 24 -27 26 -38 3 -16 7
-14 22 14 9 18 14 42 11 52 -4 11 -2 20 4 20 5 0 16 3 25 6 13 5 16 -1 16 -29
l0 -35 46 3 c25 2 48 6 51 9 14 13 25 4 43 -36 10 -24 19 -37 19 -30 1 7 16
12 41 12 24 0 40 5 40 12 0 9 3 9 12 0 7 -7 19 -12 28 -12 22 0 90 76 90 100
0 26 39 48 51 29 14 -22 10 -37 -8 -42 -13 -3 -10 -5 7 -6 25 -2 25 -2 3 -11
-25 -10 -31 -40 -8 -40 25 0 65 23 65 37 0 11 4 11 22 2 18 -10 24 -8 39 12
10 13 19 18 19 12 0 -7 7 -13 15 -13 7 0 18 -7 23 -16 13 -23 56 -14 60 12 2
11 -4 27 -13 34 -14 11 -17 10 -22 -8 -3 -12 -12 -22 -20 -22 -8 0 -13 3 -11
8 3 4 10 22 17 40 14 35 31 43 31 15 1 -17 1 -17 14 0 16 21 42 22 50 2 4 -11
11 -13 30 -5 21 8 28 5 43 -16 l19 -25 35 33 c32 30 40 33 85 29 27 -2 43 -6
37 -8 -17 -6 -17 -63 -1 -63 9 0 9 -3 0 -12 -7 -7 -12 -27 -12 -45 0 -29 3
-33 25 -33 14 0 25 4 25 8 0 9 44 32 58 32 4 0 0 -6 -9 -13 -9 -7 -18 -21 -20
-32 -3 -14 -14 -21 -37 -23 -39 -4 -43 -22 -4 -22 26 0 62 -29 62 -50 0 -16
20 -12 26 5 4 8 17 15 31 15 23 0 24 -2 18 -40 -7 -39 -6 -40 20 -40 27 0 27
1 23 50 -4 37 -1 50 9 55 23 8 33 6 33 -8 0 -20 33 -47 58 -47 13 0 22 6 22
15 0 8 -7 15 -15 15 -21 0 -19 17 5 30 12 6 25 33 36 70 9 33 21 60 25 60 5 0
4 9 -3 19 -9 15 -9 28 0 59 8 25 12 119 12 261 l0 221 -4351 0 -4350 0 2 -308z
m4039 8 c0 -11 -4 -20 -10 -20 -5 0 -10 9 -10 20 0 11 5 20 10 20 6 0 10 -9
10 -20z m0 -75 c0 -14 -4 -25 -10 -25 -5 0 -10 11 -10 25 0 14 5 25 10 25 6 0
10 -11 10 -25z m1210 15 c0 -5 -4 -10 -10 -10 -5 0 -10 5 -10 10 0 6 5 10 10
10 6 0 10 -4 10 -10z m-470 -31 c0 -5 -13 -9 -30 -9 -33 0 -43 26 -12 32 18 5
42 -9 42 -23z m2027 -71 c-2 -13 -4 -3 -4 22 0 25 2 35 4 23 2 -13 2 -33 0
-45z m313 52 c0 -5 -4 -10 -10 -10 -5 0 -10 5 -10 10 0 6 5 10 10 10 6 0 10
-4 10 -10z m95 -39 c3 -5 1 -12 -5 -16 -5 -3 -10 1 -10 9 0 18 6 21 15 7z
m-4897 -71 c-2 -8 -11 -16 -21 -18 -19 -4 -32 20 -23 43 5 13 9 13 26 3 11 -7
19 -20 18 -28z m-1361 -2 c-3 -8 -6 -5 -6 6 -1 11 2 17 5 13 3 -3 4 -12 1 -19z
m6723 -4 c0 -8 -5 -12 -10 -9 -6 4 -8 11 -5 16 9 14 15 11 15 -7z m695 6 c3
-5 -1 -10 -9 -10 -8 0 -18 5 -21 10 -3 6 1 10 9 10 8 0 18 -4 21 -10z m-7480
-30 c3 -5 1 -10 -4 -10 -6 0 -11 5 -11 10 0 6 2 10 4 10 3 0 8 -4 11 -10z
m7665 -72 c0 -16 -3 -19 -11 -11 -6 6 -8 16 -5 22 11 17 16 13 16 -11z m-8350
-8 c0 -5 -7 -10 -15 -10 -8 0 -15 5 -15 10 0 6 7 10 15 10 8 0 15 -4 15 -10z
m8220 -50 c0 -29 -4 -40 -15 -40 -11 0 -15 11 -15 40 0 29 4 40 15 40 11 0 15
-11 15 -40z m-7900 20 c24 -15 0 -30 -30 -18 -20 7 -22 11 -10 18 19 12 21 12
40 0z"/>
<path d="M5440 8230 c0 -5 18 -10 40 -10 22 0 40 5 40 10 0 6 -18 10 -40 10
-22 0 -40 -4 -40 -10z"/>
<path d="M4618 8223 c6 -2 18 -2 25 0 6 3 1 5 -13 5 -14 0 -19 -2 -12 -5z"/>
<path d="M5670 8220 c0 -6 7 -10 15 -10 8 0 15 2 15 4 0 2 -7 6 -15 10 -8 3
-15 1 -15 -4z"/>
<path d="M8067 8163 c-16 -15 -5 -44 23 -58 29 -15 31 -15 39 7 7 18 5 27 -11
41 -21 18 -40 22 -51 10z"/>
<path d="M7905 8077 c-9 -22 11 -71 25 -62 13 8 13 45 1 45 -5 0 -11 8 -14 18
-4 16 -4 16 -12 -1z"/>
<path d="M1862 8051 c-22 -19 -29 -41 -13 -41 10 0 45 50 38 56 -2 2 -14 -4
-25 -15z"/>
<path d="M936 8044 c-8 -21 -7 -36 3 -53 8 -12 12 -12 25 2 18 18 21 37 6 37
-5 0 -10 7 -10 15 0 20 -16 19 -24 -1z"/>
<path d="M210 7955 c13 -14 25 -25 27 -25 2 0 3 11 3 25 0 20 -5 25 -27 25
l-26 0 23 -25z"/>
<path d="M642 7920 c0 -14 2 -19 5 -12 2 6 2 18 0 25 -3 6 -5 1 -5 -13z"/>
<path d="M31 7884 c0 -11 3 -14 6 -6 3 7 2 16 -1 19 -3 4 -6 -2 -5 -13z"/>
<path d="M2011 5814 c-30 -38 -28 -89 5 -119 l27 -25 1637 0 c1598 0 1638 0
1661 -19 l24 -19 3 -929 2 -928 25 -24 c31 -32 88 -32 119 -2 21 21 21 26 26
664 l5 642 191 3 192 2 44 -62 c24 -35 133 -188 242 -341 108 -152 195 -281
192 -286 -3 -5 -135 -9 -293 -9 -159 0 -294 -1 -301 -1 -10 -1 -12 -23 -10
-88 l3 -88 400 -5 400 -5 310 -133 c171 -74 344 -149 385 -168 l75 -33 3 -171
2 -170 -100 0 -100 0 0 -90 0 -89 148 -3 147 -3 3 -92 3 -92 -228 -3 c-125 -2
-232 -2 -238 0 -5 1 -21 27 -34 58 -33 76 -92 147 -165 197 -72 51 -102 65
-176 83 -217 53 -458 -63 -555 -267 -98 -206 -63 -419 96 -581 113 -116 245
-159 425 -138 200 22 371 187 414 398 l13 62 269 0 c291 0 329 6 344 52 4 12
7 121 6 242 -2 237 -2 239 -59 263 l-33 13 0 213 c0 246 3 238 -100 281 -36
16 -139 60 -230 98 -91 38 -174 74 -185 79 -11 4 -103 44 -205 87 l-185 79
-90 126 c-49 69 -189 265 -310 436 -121 171 -227 314 -235 318 -8 4 -118 10
-245 13 l-230 5 -5 220 c-5 238 -8 250 -66 309 -16 15 -45 37 -66 47 -36 18
-86 19 -1707 19 l-1670 0 -20 -26z m4603 -2529 c99 -30 180 -106 217 -204 55
-147 -20 -330 -167 -402 -71 -35 -198 -35 -269 0 -64 32 -130 98 -157 159 -33
70 -32 209 1 272 76 147 230 219 375 175z"/>
<path d="M1216 5335 c-36 -33 -37 -95 -1 -130 l24 -25 569 0 569 0 27 26 c38
39 36 93 -5 128 l-31 26 -562 0 -563 0 -27 -25z"/>
<path d="M2412 4913 l3 -148 82 -3 83 -3 2 -302 3 -302 158 -3 157 -3 0 305 0
305 88 3 87 3 0 145 0 145 -333 3 -333 2 3 -147z"/>
<path d="M3187 5053 c-4 -3 -7 -208 -7 -455 l0 -449 153 3 152 3 1 148 c1 82
6 153 11 158 5 5 48 9 94 7 l84 -3 3 -158 3 -158 152 3 152 3 3 430 c1 237 0
440 -3 453 -5 22 -7 23 -153 20 l-147 -3 -3 -153 -3 -153 -95 3 -95 3 -1 129
c-2 196 15 176 -152 176 -79 0 -146 -3 -149 -7z"/>
<path d="M4127 5053 c-4 -3 -7 -208 -7 -455 l0 -448 291 2 291 3 0 112 c0 61
-3 116 -6 122 -5 7 -52 11 -132 11 l-125 0 3 43 3 42 118 3 117 3 0 114 0 115
-120 0 -120 0 0 45 0 45 130 0 c97 0 130 3 131 13 3 42 4 214 1 225 -3 9 -69
12 -286 12 -156 0 -286 -3 -289 -7z"/>
<path d="M4854 5047 c-3 -8 -4 -52 -2 -98 l3 -84 138 -3 138 -3 -3 98 -3 98
-32 3 c-31 3 -32 2 -35 -40 -4 -57 -32 -61 -36 -5 -3 36 -5 38 -35 35 -30 -3
-32 -5 -29 -41 2 -33 0 -38 -15 -35 -13 2 -19 14 -21 46 -3 39 -5 42 -33 42
-16 0 -32 -6 -35 -13z"/>
<path d="M1235 4848 c-52 -30 -62 -102 -20 -143 l24 -25 450 0 450 0 28 24
c23 20 28 32 27 66 -1 29 -8 49 -23 63 -21 22 -26 22 -469 24 -326 2 -452 0
-467 -9z"/>
<path d="M4857 4803 c-4 -3 -7 -26 -7 -50 l0 -43 65 0 c36 0 65 -4 65 -8 0 -4
-29 -25 -65 -46 l-66 -38 3 -52 3 -51 135 0 135 0 0 50 0 50 -57 -1 c-32 -1
-58 3 -58 8 0 5 27 26 60 46 l60 37 0 53 0 52 -133 0 c-74 0 -137 -3 -140 -7z"/>
<path d="M4910 4438 c-60 -41 -87 -131 -61 -201 39 -101 186 -128 255 -46 93
110 24 269 -117 269 -29 0 -55 -8 -77 -22z m129 -110 c31 -54 -43 -104 -91
-61 -25 22 -23 49 6 78 30 30 63 23 85 -17z"/>
<path d="M874 4346 c-35 -16 -44 -32 -44 -85 0 -27 7 -44 26 -62 l26 -24 611
3 c571 3 614 4 637 21 18 13 26 29 28 56 4 49 -13 81 -51 95 -49 17 -1193 13
-1233 -4z"/>
<path d="M1551 3874 c-47 -39 -43 -95 12 -146 1 -1 92 -4 202 -7 l200 -6 5
-300 c5 -327 9 -346 68 -408 62 -65 87 -71 313 -75 l205 -4 12 -56 c35 -170
167 -322 327 -376 74 -26 254 -24 331 4 163 57 282 199 320 383 53 255 -119
521 -377 582 -227 53 -460 -62 -563 -277 l-37 -78 -185 0 c-183 0 -185 0 -210
25 l-24 24 2 278 3 278 223 5 c220 5 224 5 243 29 22 26 25 87 6 112 -29 38
-43 39 -551 39 l-494 0 -31 -26z m1598 -593 c186 -58 278 -261 199 -442 -30
-70 -119 -150 -193 -174 -154 -48 -315 22 -385 170 -70 146 -17 333 116 411
95 56 167 65 263 35z"/>
<path d="M3799 3118 c-18 -7 -20 -16 -17 -90 l3 -83 975 -3 c536 -1 985 0 998
3 22 5 23 9 20 90 l-3 85 -978 2 c-538 2 -987 0 -998 -4z"/>
</g>
</svg>
